<svg width="193" height="40" viewBox="0 0 193 40" fill="none" xmlns="http://www.w3.org/2000/svg">
<path d="M49.9994 5H44.9994V0C47.7619 0 49.9994 2.2375 49.9994 5Z" fill="#D82148"/>
<path d="M59.9993 0V5H54.9993C54.9993 2.2375 57.2368 0 59.9993 0Z" fill="#D82148"/>
<path d="M34.9996 35V40H14.9998V10H19.9998V35H34.9996Z" fill="#D82148"/>
<path d="M29.9997 10H24.9997V15H29.9997V10Z" fill="#D82148"/>
<path d="M39.9995 10H34.9995V15H39.9995V10Z" fill="#D82148"/>
<path d="M10 10V40H0V20C0 14.4775 4.4775 10 10 10Z" fill="#D82148"/>
<path d="M64.9992 10V15C64.9992 20.5225 60.5217 25 54.9993 25H49.9994V40H44.9994V10H64.9992Z" fill="#D82148"/>
<path d="M77.759 15.7576H74.999V34.6776H77.759V15.7576Z" fill="#D82148"/>
<path d="M84.2314 20.4875H81.4714V34.6776H84.2314V20.4875Z" fill="#D82148"/>
<path d="M82.864 15C82.384 15 81.974 15.1625 81.6315 15.485C81.289 15.8075 81.119 16.1975 81.119 16.6525C81.119 17.1075 81.289 17.4875 81.6315 17.8125C81.974 18.135 82.384 18.2975 82.864 18.2975C83.344 18.2975 83.754 18.135 84.0965 17.8125C84.439 17.49 84.609 17.1025 84.609 16.6525C84.609 16.2025 84.439 15.8075 84.0965 15.485C83.754 15.1625 83.344 15 82.864 15Z" fill="#D82148"/>
<path d="M93.9314 32.36C93.7664 32.39 93.5714 32.405 93.3489 32.405C93.0489 32.405 92.7689 32.3575 92.5139 32.2625C92.2589 32.1675 92.0514 31.985 91.8914 31.7175C91.7314 31.45 91.6514 31.0475 91.6514 30.5125V22.705H94.5589V20.4875H91.6514V17.0875H88.8914V20.4875H86.8139V22.705H88.8914V31.085C88.8914 31.94 89.0839 32.6525 89.4739 33.22C89.8639 33.7875 90.3689 34.205 90.9964 34.4775C91.6239 34.75 92.3014 34.8775 93.0264 34.865C93.4689 34.86 93.8389 34.825 94.1339 34.76C94.4289 34.695 94.6564 34.6325 94.8164 34.57L94.3189 32.2875C94.2264 32.3075 94.0989 32.33 93.9314 32.3625V32.36Z" fill="#D82148"/>
<path d="M103.599 32.36C103.434 32.39 103.239 32.405 103.016 32.405C102.714 32.405 102.436 32.3575 102.181 32.2625C101.926 32.1675 101.719 31.985 101.559 31.7175C101.399 31.45 101.319 31.0475 101.319 30.5125V22.705H104.226V20.4875H101.319V17.0875H98.5588V20.4875H96.4813V22.705H98.5588V31.085C98.5588 31.94 98.7538 32.6525 99.1413 33.22C99.5288 33.7875 100.036 34.205 100.664 34.4775C101.291 34.7475 101.969 34.8775 102.694 34.865C103.136 34.86 103.506 34.825 103.801 34.76C104.096 34.695 104.324 34.6325 104.484 34.57L103.986 32.2875C103.894 32.3075 103.766 32.33 103.599 32.3625V32.36Z" fill="#D82148"/>
<path d="M110.326 15.7576H107.566V34.6776H110.326V15.7576Z" fill="#D82148"/>
<path d="M124.304 21.9475C123.706 21.3825 123.034 20.965 122.281 20.7C121.531 20.435 120.754 20.3025 119.956 20.3025C118.639 20.3025 117.489 20.6125 116.509 21.235C115.526 21.8575 114.764 22.7225 114.219 23.8325C113.674 24.9425 113.401 26.2225 113.401 27.675C113.401 29.1275 113.674 30.43 114.219 31.5225C114.764 32.615 115.539 33.4625 116.544 34.0625C117.551 34.6625 118.751 34.9625 120.149 34.9625C121.184 34.9625 122.104 34.805 122.914 34.4875C123.724 34.17 124.396 33.725 124.936 33.1475C125.474 32.5725 125.849 31.9 126.059 31.13L123.446 30.66C123.281 31.1025 123.041 31.4775 122.726 31.7775C122.414 32.08 122.041 32.305 121.609 32.4575C121.179 32.6075 120.701 32.6825 120.179 32.6825C119.371 32.6825 118.669 32.51 118.064 32.16C117.461 31.8125 116.991 31.305 116.656 30.64C116.344 30.0225 116.184 29.275 116.161 28.4125H126.234V27.4325C126.234 26.145 126.061 25.05 125.716 24.1475C125.371 23.245 124.901 22.51 124.304 21.945V21.9475ZM116.166 26.345C116.201 25.735 116.346 25.1625 116.619 24.6325C116.929 24.025 117.374 23.5325 117.949 23.155C118.524 22.7775 119.199 22.5875 119.974 22.5875C120.689 22.5875 121.311 22.75 121.844 23.0775C122.376 23.405 122.789 23.85 123.086 24.4125C123.381 24.9775 123.529 25.6225 123.529 26.3475H116.166V26.345Z" fill="#D82148"/>
<path d="M139.371 21.1724C138.471 20.5924 137.451 20.3049 136.306 20.3049C135.426 20.3049 134.718 20.4524 134.183 20.7424C133.648 21.0349 133.228 21.3749 132.928 21.7624C132.626 22.1499 132.396 22.4924 132.236 22.7874H132.006V20.4874H129.311V39.9999H132.071V32.4699H132.236C132.401 32.7724 132.638 33.1174 132.946 33.5049C133.253 33.8924 133.681 34.2324 134.226 34.5224C134.771 34.8124 135.473 34.9574 136.336 34.9574C137.481 34.9574 138.498 34.6624 139.391 34.0749C140.283 33.4874 140.986 32.6449 141.496 31.5524C142.006 30.4599 142.261 29.1449 142.261 27.6124C142.261 26.0799 142.003 24.7674 141.491 23.6774C140.978 22.5874 140.271 21.7524 139.373 21.1724H139.371ZM139.043 30.1424C138.756 30.8999 138.338 31.4999 137.783 31.9399C137.231 32.3799 136.541 32.5999 135.716 32.5999C134.891 32.5999 134.251 32.3899 133.703 31.9674C133.156 31.5449 132.736 30.9599 132.448 30.2074C132.158 29.4549 132.013 28.5824 132.013 27.5849C132.013 26.5874 132.156 25.7374 132.438 24.9974C132.721 24.2574 133.138 23.6824 133.688 23.2699C134.238 22.8574 134.913 22.6499 135.713 22.6499C136.513 22.6499 137.238 22.8649 137.796 23.2974C138.353 23.7299 138.771 24.3174 139.051 25.0624C139.331 25.8074 139.471 26.6474 139.471 27.5849C139.471 28.5224 139.328 29.3874 139.041 30.1449L139.043 30.1424Z" fill="#D82148"/>
<path d="M154.571 21.2274C154.013 20.8774 153.416 20.6349 152.781 20.5024C152.146 20.3699 151.543 20.3049 150.976 20.3049C150.121 20.3049 149.306 20.4274 148.531 20.6699C147.756 20.9124 147.071 21.3024 146.476 21.8349C145.883 22.3674 145.431 23.0649 145.123 23.9274L147.718 24.5174C147.921 24.0174 148.288 23.5649 148.821 23.1549C149.353 22.7449 150.083 22.5399 151.013 22.5399C151.943 22.5399 152.578 22.7624 153.031 23.2049C153.483 23.6474 153.711 24.2749 153.711 25.0799V25.1449C153.711 25.4774 153.591 25.7174 153.351 25.8649C153.111 26.0124 152.726 26.1199 152.196 26.1849C151.666 26.2499 150.978 26.3324 150.128 26.4299C149.458 26.5099 148.798 26.6274 148.153 26.7824C147.508 26.9349 146.923 27.1649 146.401 27.4649C145.878 27.7674 145.463 28.1774 145.153 28.6924C144.846 29.2099 144.691 29.8699 144.691 30.6699C144.691 31.5999 144.901 32.3849 145.323 33.0249C145.746 33.6649 146.318 34.1549 147.046 34.4899C147.771 34.8249 148.583 34.9924 149.483 34.9924C150.266 34.9924 150.936 34.8799 151.496 34.6499C152.056 34.4224 152.513 34.1349 152.871 33.7899C153.228 33.4449 153.496 33.0924 153.673 32.7374H153.783V34.6774H156.478V25.2549C156.478 24.2199 156.301 23.3774 155.943 22.7274C155.586 22.0774 155.128 21.5774 154.573 21.2249L154.571 21.2274ZM153.716 29.5599C153.716 30.1199 153.573 30.6449 153.286 31.1349C152.998 31.6249 152.583 32.0199 152.038 32.3224C151.493 32.6249 150.841 32.7749 150.076 32.7749C149.311 32.7749 148.651 32.5999 148.146 32.2524C147.641 31.9049 147.388 31.3874 147.388 30.7049C147.388 30.2124 147.518 29.8174 147.781 29.5174C148.043 29.2174 148.393 28.9899 148.833 28.8299C149.273 28.6699 149.761 28.5549 150.296 28.4874C150.523 28.4574 150.806 28.4174 151.146 28.3724C151.483 28.3274 151.831 28.2749 152.188 28.2149C152.546 28.1574 152.863 28.0849 153.143 28.0024C153.423 27.9199 153.613 27.8299 153.711 27.7299V29.5599H153.716Z" fill="#D82148"/>
<path d="M173.37 30.8625H173.23L170.46 20.4875H167.608L164.82 30.91H164.683L161.903 20.4875H159.05L163.223 34.6776H166.03L168.91 24.4326H169.123L172.003 34.6776H174.818L178.983 20.4875H176.13L173.37 30.8625Z" fill="#D82148"/>
<path d="M191.538 28.1274C190.898 27.4999 189.925 27.0349 188.62 26.7324L186.368 26.2149C185.585 26.0299 185.02 25.7924 184.67 25.5024C184.32 25.2124 184.143 24.8324 184.143 24.3574C184.143 23.8099 184.405 23.3624 184.928 23.0124C185.45 22.6649 186.103 22.4899 186.885 22.4899C187.458 22.4899 187.935 22.5824 188.315 22.7674C188.698 22.9524 189 23.1899 189.225 23.4799C189.45 23.7699 189.615 24.0749 189.72 24.3949L192.223 23.9524C191.94 22.8449 191.358 21.9574 190.478 21.2974C189.598 20.6349 188.393 20.3049 186.858 20.3049C185.793 20.3049 184.848 20.4824 184.025 20.8349C183.2 21.1899 182.555 21.6799 182.085 22.3074C181.618 22.9349 181.385 23.6674 181.385 24.5074C181.385 25.5174 181.7 26.3524 182.33 27.0124C182.96 27.6724 183.938 28.1524 185.26 28.4524L187.66 28.9799C188.338 29.1324 188.84 29.3624 189.17 29.6624C189.5 29.9624 189.665 30.3374 189.665 30.7799C189.665 31.3274 189.395 31.7924 188.853 32.1699C188.31 32.5499 187.588 32.7374 186.683 32.7374C185.853 32.7374 185.178 32.5599 184.66 32.2074C184.143 31.8524 183.803 31.3274 183.635 30.6324L180.968 31.0399C181.195 32.2974 181.81 33.2649 182.815 33.9449C183.818 34.6249 185.113 34.9649 186.703 34.9649C187.848 34.9649 188.855 34.7774 189.725 34.4024C190.595 34.0274 191.275 33.5074 191.765 32.8449C192.255 32.1824 192.5 31.4274 192.5 30.5774C192.5 29.5724 192.18 28.7574 191.54 28.1299L191.538 28.1274Z" fill="#D82148"/>
</svg>
