<svg xmlns="http://www.w3.org/2000/svg" xmlns:xlink="http://www.w3.org/1999/xlink" width="205" height="63" viewBox="0 0 205 63">
    <defs>
        <linearGradient id="9g8xbz4ftb" x1="36.769%" x2="36.769%" y1="96.755%" y2="0%">
            <stop offset="0%" stop-color="#00A3DA" stop-opacity=".5"/>
            <stop offset="22.902%" stop-color="#00A3DA"/>
            <stop offset="100%" stop-color="#0A4A8E"/>
            <stop offset="100%" stop-color="#0A4A8E"/>
        </linearGradient>
        <path id="2vs8llxg9a" d="M52.754 9.83c6.163 0 13.726 2.591 13.726 13.994v1.13H46.704c-.302 4.87 4.48 6.61 8.824 6.374 5.633 0 10.925-3.614 10.925-3.614l-4.296 6.834s-4.084 1.434-9.18 1.434c-5.855 0-14.866-3.346-14.866-13.053 0-9.76 8.48-13.098 14.643-13.098zM9.159.59l17.374 22.246h.112V.59h8.406v34.876h-8.406l-18.1-22.435h-.112v22.435H.027V.59h9.132zm58.514 9.953L77.942 22.44l-10.98 12.678h-1.194L75.8 22.439l-9.32-11.896h1.193zm18.382 13.233l8.826 11.34h-9.21l-4.275-5.672 4.659-5.668zm8.387-13.233l-8.353 10.54-4.186-5.343 3.658-5.197h8.881zm-41.745 4.703c-2.801 0-5.213 1.558-5.881 5.228h11.6c-.452-3.529-2.354-5.228-5.719-5.228z"/>
    </defs>
    <g fill="none" fill-rule="evenodd">
        <g>
            <path fill="#1A1919" d="M0 50.964c0-4.538 1.328-8.347 3.563-11.5L4 40.07C2.1 42.886.857 46.67.857 50.964.857 55.26 2.1 59.044 4 61.858l-.437.606C1.328 59.311 0 55.501 0 50.964M10.846 55.477v-4.54c-3.93 1.027-4.947 2.7-4.947 4.397 0 1.48.626 2.15 1.682 2.15 1.212 0 2.386-.812 3.265-2.007zM5 55.405c0-2.366 1.505-4.276 5.846-5.376v-1.004c0-1.673-.625-2.557-1.799-2.557-1.35 0-2.346.884-3.167 1.935l-.626-.645c1.056-1.386 2.23-2.294 3.833-2.294 1.837 0 2.658 1.338 2.658 3.561v6.141c0 1.53.06 2.462.255 3.107h-.939c-.117-.525-.215-.956-.215-1.673-.978 1.17-2.092 1.864-3.422 1.864C5.821 58.464 5 57.247 5 55.405zM15.362 46.716H14v-1.022h1.362v-2.337c0-2.14.979-2.893 2.271-2.893H18v1.048h-.472c-.803 0-1.362.484-1.362 1.75v2.432h1.746v1.022h-1.746v11.748h-.804V46.716M25.035 51.952c0-2.9-.942-5.49-3.034-5.49-1.99 0-3.036 2.377-3.036 5.49 0 2.923.923 5.514 3.036 5.514 1.989 0 3.034-2.353 3.034-5.514zM18 51.976c0-4.112 1.62-6.512 4-6.512s4 2.4 4 6.512c0 4.064-1.62 6.488-4 6.488-2.358 0-4-2.424-4-6.488zM29.03 51.582L26.339 45.464 27.261 45.464 29.557 50.714 31.796 45.464 32.662 45.464 29.971 51.605 33 58.464 32.079 58.464 29.463 52.447 26.865 58.464 26 58.464 29.03 51.582M40.035 51.952c0-2.9-.943-5.49-3.034-5.49-1.99 0-3.036 2.377-3.036 5.49 0 2.923.923 5.514 3.036 5.514 1.989 0 3.034-2.353 3.034-5.514zM33 51.976c0-4.112 1.62-6.512 4-6.512s4 2.4 4 6.512c0 4.064-1.62 6.488-4 6.488-2.358 0-4-2.424-4-6.488zM43.035 58.464L43.965 58.464 43.965 40.464 43.035 40.464zM51.848 55.477v-4.54c-3.931 1.027-4.949 2.7-4.949 4.397 0 1.48.626 2.15 1.682 2.15 1.213 0 2.385-.812 3.267-2.007zM46 55.405c0-2.366 1.505-4.276 5.848-5.376v-1.004c0-1.673-.626-2.557-1.8-2.557-1.35 0-2.347.884-3.169 1.935l-.625-.645c1.056-1.386 2.23-2.294 3.833-2.294 1.839 0 2.659 1.338 2.659 3.561v6.141c0 1.53.06 2.462.254 3.107h-.938c-.117-.525-.214-.956-.214-1.673-.98 1.17-2.094 1.864-3.423 1.864-1.604 0-2.425-1.217-2.425-3.059zM55 45.731h.925v1.867c.805-.995 2.112-2.134 3.44-2.134 1.811 0 2.635 1.213 2.635 3.517v9.483h-.925v-9.337c0-1.771-.503-2.644-1.81-2.644-1.167 0-2.354.97-3.34 2.183v9.798H55V45.731M69.082 50.953c-.096-2.494-.841-4.49-2.468-4.49-1.3 0-2.506 1.448-2.696 4.49h5.164zM63 51.952c0-4.349 1.644-6.488 3.633-6.488 2.22 0 3.367 2.377 3.367 6.276v.212h-6.101c.037 3.518 1.09 5.514 2.734 5.514 1.282 0 1.933-1.022 2.449-2.685l.765.405c-.65 2.09-1.722 3.278-3.271 3.278-2.066 0-3.576-2.305-3.576-6.512zM73 45.731h.775v2.4h.035c.607-1.502 1.569-2.667 2.987-2.667H77l-.118 1.09h-.22c-1.266 0-2.313 1.287-2.887 3.202v8.708H73V45.731M77 61.858c1.907-2.814 3.173-6.6 3.173-10.894 0-4.294-1.266-8.078-3.173-10.894l.439-.606C79.683 42.617 81 46.426 81 50.964c0 4.537-1.317 8.347-3.561 11.5L77 61.858"/>
            <path fill="#233C72" d="M88 49.394c0-5.414 2.369-8.93 5.766-8.93 2.883 0 4.408 2.133 5.033 5.32l-1.543.54c-.588-2.625-1.524-3.961-3.508-3.961-2.534 0-4.113 2.719-4.113 7.008 0 4.594 1.616 7.219 4.15 7.219 1.928 0 3.122-1.384 3.69-4.196L99 52.84c-.66 3.422-2.386 5.624-5.234 5.624-3.452 0-5.766-3.397-5.766-9.07M100 58.464v-18h1.578v7.078c.834-1.094 2.031-2.19 3.59-2.19 1.833 0 2.832 1.412 2.832 3.846v9.266h-1.561V49.66c0-1.704-.544-2.506-1.76-2.506-1.142 0-2.104.802-3.101 2.066v9.244H100M117.57 50.901c-.121-2.222-.906-3.734-2.423-3.734-1.236 0-2.404 1.158-2.613 3.734h5.037zM111 51.964c0-4.538 2.23-6.5 4.166-6.5 2.177 0 3.834 2.08 3.834 6.595v.425h-6.501c.051 2.814 1.255 4.325 2.771 4.325 1.325 0 2.073-.732 2.77-2.033l.872 1.042c-.854 1.654-2.02 2.646-3.746 2.646-2.178 0-4.166-2.15-4.166-6.5zM121.957 58.464l-2.957-13h1.635l1.267 6.107c.33 1.6.55 2.659.844 4.333h.037c.33-1.821.513-2.759.845-4.358l1.23-6.082h1.377l1.267 6.205c.33 1.552.513 2.536.808 4.235h.036c.332-1.724.515-2.66.846-4.185l1.32-6.255H132l-2.956 13h-1.469l-2.056-10.169h-.037l-2.075 10.17h-1.45M139.235 55.018V51.5c-3.55.762-4.733 1.926-4.733 3.495 0 1.213.6 1.854 1.57 1.854 1.236 0 2.297-.69 3.163-1.831zm-6.235.286c0-2.543 1.608-4.35 6.235-5.228v-.571c0-1.569-.618-2.329-1.768-2.329-1.41 0-2.453.832-3.37 1.902l-.797-1.284c1.078-1.332 2.473-2.33 4.327-2.33 2.225 0 3.108 1.57 3.108 4.183v5.537c0 1.522.07 2.449.265 3.09h-1.554c-.123-.522-.211-1.02-.211-1.734-1.043 1.307-2.208 1.924-3.603 1.924-1.607 0-2.632-1.14-2.632-3.16zM150.371 51.919c0-3.249-1.213-4.836-2.823-4.836-1.156 0-2.085.793-2.918 1.948v5.825c.872 1.25 1.838 1.924 2.899 1.924 1.744 0 2.842-1.492 2.842-4.861zm-5.741 4.718v1.634H143V40.464h1.63v6.882c.758-1.083 1.8-2.046 3.297-2.046 2.293 0 4.073 2.166 4.073 6.595 0 4.428-1.8 6.57-4.244 6.57-1.231 0-2.273-.699-3.126-1.828zM154 58.464L155 58.464 155 40.464 154 40.464zM163.571 50.901c-.123-2.222-.907-3.734-2.423-3.734-1.238 0-2.405 1.158-2.615 3.734h5.038zM157 51.964c0-4.538 2.23-6.5 4.166-6.5 2.178 0 3.834 2.08 3.834 6.595v.425h-6.503c.054 2.814 1.257 4.325 2.773 4.325 1.325 0 2.074-.732 2.772-2.033l.87 1.042c-.853 1.654-2.02 2.646-3.746 2.646-2.178 0-4.166-2.15-4.166-6.5zM166 56.334l.975-1.233c.749 1.02 1.742 1.728 3.09 1.728 1.537 0 2.38-.685 2.38-1.963 0-1.256-.863-1.73-2.548-2.226-2.099-.64-3.54-1.35-3.54-3.765 0-1.895 1.312-3.41 3.465-3.41 1.742 0 2.867.71 3.784 1.8l-.842 1.35c-.75-.879-1.76-1.493-2.867-1.493-1.442 0-2.005.805-2.005 1.682 0 1.16.787 1.585 2.342 2.037 2.23.685 3.766 1.372 3.766 3.952 0 2.392-1.704 3.671-3.953 3.671-1.78 0-3.24-.9-4.047-2.13"/>
            <path fill="#C8C5C1" d="M76.793 11.464L68.707 11.464 78.911 23.082 68 35.464 75.703 35.464 86 23.082 76.793 11.464"/>
            <g transform="translate(1 .464)">
                <mask id="m8lh0fmfpc" fill="#fff">
                    <use xlink:href="#2vs8llxg9a"/>
                </mask>
                <path fill="url(#9g8xbz4ftb)" d="M66.48 10.543L75.8 22.44 65.769 35.117h1.193l10.98-12.678-10.269-11.896H66.48zm27.962 0h-8.881l-3.658 5.197 4.186 5.342 8.353-10.539zM81.396 29.444l4.274 5.673h9.211l-8.826-11.341-4.659 5.668zM52.697 15.246c3.365 0 5.267 1.7 5.718 5.228H46.817c.668-3.67 3.08-5.228 5.881-5.228zm2.83 16.082c-4.344.235-9.125-1.504-8.823-6.374H66.48v-1.13c0-11.403-7.563-13.993-13.727-13.993-6.162 0-14.642 3.337-14.642 13.098 0 9.707 9.01 13.053 14.866 13.053 5.096 0 9.18-1.434 9.18-1.434l4.296-6.834s-5.292 3.614-10.925 3.614zm-28.882-8.492h-.112L9.159.59H.027v34.876h8.406V13.032h.112l18.1 22.435h8.406V.59h-8.406v22.245z" mask="url(#m8lh0fmfpc)"/>
            </g>
            <path fill="#233C72" d="M115.834 23.14h9.503c.05 6.639-4.3 10.492-10.882 10.492-7.538 0-12.69-5.27-12.69-14.43 0-9.211 5.786-13.86 12.582-13.86 5.84 0 8.869 2.482 10.724 7.883l3.61-.71c-2.019-6.553-6.85-10.05-14.281-10.05-9.501 0-16.4 6.552-16.4 16.868 0 9.827 5.839 17.131 16.136 17.131 6.212 0 9.609-2.744 11.36-5.622h.107v5.003H129V20.44h-13.166v2.7M150.66 29.311c-2.821 2.287-6.22 3.65-10.09 3.65-3.082 0-5.018-1.276-5.018-3.693 0-3.033 3.295-5.494 15.107-7.166v7.209zm3.558.046V18.85c0-4.615-2.667-7.386-8.836-7.386-5.435 0-9.252 1.76-12.547 4.31l1.933 1.89c2.876-2.111 5.961-3.65 10.297-3.65 3.609 0 5.594 1.539 5.594 4.747v1.19C136.654 21.751 132 25.093 132 29.662c0 3.608 2.874 5.802 7.786 5.802 4.132 0 7.684-1.27 10.873-3.69 0 1.318.26 2.33.63 3.297H155c-.574-1.189-.782-2.9-.782-5.714zM172.644 15.208l.356-2.744h-.615c-5.342 0-8.633 2.1-10.736 4.884h-.106v-4.453H158v22.57h3.543V20.771c2.11-3.552 5.602-5.608 10.02-5.608.102 0 1.08.044 1.08.044M191.552 29.076c-2.613 2.335-5.179 3.791-8.576 3.791-4.604 0-8.368-2.952-8.368-9.34 0-6.565 3.502-9.563 8.368-9.563 3.19 0 5.86 1.368 8.576 3.835v11.277zm3.61.266V2.464h-3.61v12.558c-2.143-2.026-5.332-3.614-8.89-3.614-6.59 0-11.662 3.968-11.662 12.073 0 8.108 5.02 11.983 11.348 11.983 4.133 0 6.959-1.76 9.204-3.788 0 1.235.315 2.6.63 3.394H196c-.627-1.192-.838-2.907-.838-5.728zM201.38 5.25V4.18h.705c.36 0 .745.08.745.508 0 .531-.392.563-.83.563h-.62zm0 .445h.596l.902 1.5h.579l-.973-1.524c.503-.064.887-.334.887-.952 0-.684-.4-.985-1.207-.985h-1.3v3.461h.517v-1.5zm.627 2.77c1.612 0 2.993-1.27 2.993-3.008 0-1.723-1.38-2.993-2.993-2.993-1.629 0-3.007 1.27-3.007 2.993 0 1.738 1.378 3.007 3.007 3.007zm-2.412-3.008c0-1.422 1.056-2.493 2.412-2.493 1.34 0 2.397 1.071 2.397 2.493 0 1.444-1.057 2.508-2.397 2.508-1.356 0-2.412-1.064-2.412-2.508z"/>
        </g>
    </g>
</svg>
