<?xml version="1.0" encoding="UTF-8" standalone="no"?>
<svg
   xmlns:dc="http://purl.org/dc/elements/1.1/"
   xmlns:cc="http://creativecommons.org/ns#"
   xmlns:rdf="http://www.w3.org/1999/02/22-rdf-syntax-ns#"
   xmlns:svg="http://www.w3.org/2000/svg"
   xmlns="http://www.w3.org/2000/svg"
   xmlns:sodipodi="http://sodipodi.sourceforge.net/DTD/sodipodi-0.dtd"
   xmlns:inkscape="http://www.inkscape.org/namespaces/inkscape"
   id="Layer_1"
   data-name="Layer 1"
   viewBox="0 0 1000 143.15187"
   version="1.1"
   sodipodi:docname="A.svg"
   width="1000"
   height="143.15187"
   inkscape:version="0.92.4 (5da689c313, 2019-01-14)">
  <metadata
     id="metadata16">
    <rdf:RDF>
      <cc:Work
         rdf:about="">
        <dc:format>image/svg+xml</dc:format>
        <dc:type
           rdf:resource="http://purl.org/dc/dcmitype/StillImage" />
        <dc:title></dc:title>
      </cc:Work>
    </rdf:RDF>
  </metadata>
  <sodipodi:namedview
     pagecolor="#ffffff"
     bordercolor="#666666"
     borderopacity="1"
     objecttolerance="10"
     gridtolerance="10"
     guidetolerance="10"
     inkscape:pageopacity="0"
     inkscape:pageshadow="2"
     inkscape:window-width="1920"
     inkscape:window-height="1017"
     id="namedview14"
     showgrid="false"
     fit-margin-top="0"
     fit-margin-left="0"
     fit-margin-right="0"
     fit-margin-bottom="0"
     inkscape:zoom="0.47879264"
     inkscape:cx="495.12354"
     inkscape:cy="-197.83268"
     inkscape:window-x="1912"
     inkscape:window-y="-8"
     inkscape:window-maximized="1"
     inkscape:current-layer="Layer_1" />
  <defs
     id="defs9">
    <style
       id="style7">.cls-1{fill:#231f20;}</style>
  </defs>
  <path
     class="cls-1"
     d="M 24.630542,1.64204 H 112.75315 L 108.5428,26.272581 H 48.503221 L 42.10349,63.449963 h 54.229296 l -4.505073,24.96737 H 37.387899 L 28.125132,141.29932 H 0 Z M 159.1933,92.627682 h -21.05175 l -8.4207,48.882148 H 101.46941 L 125.93154,1.64204 h 46.69277 c 26.27258,0 47.0296,14.357289 47.24012,42.524524 0,22.567471 -13.76784,38.187866 -33.26176,44.75601 l 23.91478,52.376746 h -29.47244 z m 6.35762,-23.409541 c 16.04143,0 25.2621,-8.841733 25.2621,-23.620058 0,-12.631047 -9.01015,-19.325502 -21.55699,-19.325502 h -19.49391 l -7.62074,42.94556 z m 59.36593,4.926108 C 224.91685,28.546169 259.02067,0 298.93478,0 c 38.44049,0 67.99714,28.756687 67.99714,69.218141 0.12631,45.387559 -34.31435,73.933729 -74.22845,73.933729 -38.39839,0 -67.78662,-28.75668 -67.78662,-69.218138 z m 113.17418,-5.55766 c 0,-26.483096 -16.42036,-43.324492 -39.8299,-43.324492 -26.90413,0 -44.37708,19.283399 -44.37708,49.303187 0,26.483096 16.42036,43.535006 39.8299,43.535006 26.90413,0 44.37708,-19.493913 44.37708,-49.513701 z M 408.69858,54.73454 c 0,0.421035 -13.55732,86.69109 -13.55732,86.69109 H 368.86868 L 393.70974,0.42104 h 2.65252 c 0,0 69.21814,87.070016 69.84969,88.417327 0,-0.421034 13.34681,-87.196327 13.34681,-87.196327 h 26.27257 l -24.84106,140.87828 h -2.65252 c 0,0 -69.00762,-86.859503 -69.63917,-87.78578 z m 141.173,-28.461959 H 510.63113 L 514.84148,1.64204 H 621.237 l -4.21035,24.630541 H 578.20723 L 557.87125,141.29932 H 529.4935 Z M 630.24715,1.64204 h 28.16723 L 638.0784,116.66877 h 62.01844 l -4.21035,24.63055 h -90.26988 z m 100.33262,0 H 758.747 l -24.67265,139.65728 h -28.12513 z m 62.64999,53.0925 c 0,0.421035 -13.55733,86.69109 -13.55733,86.69109 H 753.39986 L 778.24092,0.42104 h 2.69462 c 0,0 69.21814,87.070016 69.80759,88.417327 0,-0.378931 13.3468,-87.070017 13.3468,-87.070017 h 26.31468 l -24.84105,140.87828 h -2.69463 c 0,0 -69.00762,-86.985813 -69.63917,-87.91209 z M 909.43539,1.64204 H 1000 l -4.21035,24.630541 h -62.64999 l -5.76818,32.882826 h 54.73454 l -4.21035,24.209507 h -54.73454 l -5.9787,33.303856 h 65.51304 l -4.50508,24.63055 h -93.34344 z"
     id="path11"
     inkscape:connector-curvature="0"
     style="fill:#231f20;stroke-width:4.21034908"
     sodipodi:nodetypes="ccccccccccccccccscccccsssccscscsccssssscccccccccccccccccccccccccccccccccccccccccccccccccccccccc" />
</svg>
