<svg width="350" height="250" viewBox="0 0 350 250" fill="none" xmlns="http://www.w3.org/2000/svg">
<path d="M203.858 0.837891H175.767V143.93H203.858V0.837891Z" fill="#9C8677"/>
<path d="M181.203 39.1476C180.841 39.1476 180.523 38.873 180.48 38.4973C180.437 38.0927 180.726 37.7459 181.13 37.7025L185.656 37.2545C186.046 37.2256 186.408 37.5002 186.451 37.9048C186.494 38.3094 186.205 38.6563 185.8 38.6996L181.275 39.1476C181.275 39.1476 181.232 39.1476 181.203 39.1476Z" fill="#826C63"/>
<path d="M187.087 46.4738C186.711 46.4738 186.393 46.1703 186.364 45.7946C186.335 45.39 186.639 45.0576 187.044 45.0287L194.287 44.5952C194.706 44.5663 195.024 44.8697 195.053 45.2744C195.082 45.679 194.779 46.0114 194.374 46.0403L187.13 46.4738C187.13 46.4738 187.102 46.4738 187.087 46.4738Z" fill="#826C63"/>
<path d="M193.896 55.0722C193.535 55.0722 193.231 54.8121 193.173 54.4364C193.116 54.0462 193.405 53.6705 193.795 53.6271L196.976 53.2081C197.366 53.1503 197.742 53.4393 197.785 53.8294C197.843 54.2196 197.554 54.5953 197.164 54.6387L193.983 55.0578C193.983 55.0578 193.925 55.0578 193.882 55.0578L193.896 55.0722Z" fill="#826C63"/>
<path d="M186.364 63.4246C184.701 63.4246 183.024 63.1789 181.434 62.6732C181.058 62.5575 180.841 62.1529 180.957 61.7628C181.073 61.387 181.477 61.1703 181.868 61.2859C184.803 62.1963 188.027 62.1963 190.947 61.257C191.338 61.1414 191.742 61.3437 191.858 61.7338C191.974 62.1096 191.771 62.5286 191.381 62.6442C189.762 63.1645 188.056 63.4246 186.364 63.4246Z" fill="#826C63"/>
<path d="M184.369 75.8235H180.74C180.335 75.8235 180.017 75.5056 180.017 75.101C180.017 74.6963 180.335 74.3784 180.74 74.3784H184.369C184.774 74.3784 185.092 74.6963 185.092 75.101C185.092 75.5056 184.774 75.8235 184.369 75.8235Z" fill="#826C63"/>
<path d="M196.152 70.8528H189.357C188.952 70.8528 188.634 70.5349 188.634 70.1303C188.634 69.7256 188.952 69.4077 189.357 69.4077H196.152C196.557 69.4077 196.875 69.7256 196.875 70.1303C196.875 70.5349 196.557 70.8528 196.152 70.8528Z" fill="#826C63"/>
<path d="M198.407 80.3611H194.33C193.925 80.3611 193.607 80.0432 193.607 79.6386C193.607 79.2339 193.925 78.916 194.33 78.916H198.407C198.812 78.916 199.13 79.2339 199.13 79.6386C199.13 80.0432 198.812 80.3611 198.407 80.3611Z" fill="#826C63"/>
<path d="M196.138 89.6674L186.624 89.6096C186.22 89.6096 185.902 89.2773 185.902 88.8871C185.902 88.4825 186.234 88.1646 186.624 88.1646L196.138 88.2224C196.543 88.2224 196.861 88.5547 196.861 88.9449C196.861 89.3495 196.528 89.6674 196.138 89.6674Z" fill="#826C63"/>
<path d="M184.369 97.6443C184.369 97.6443 184.326 97.6443 184.311 97.6443L178.875 97.2107C178.47 97.1818 178.181 96.835 178.21 96.4304C178.239 96.0258 178.629 95.7368 178.991 95.7657L184.427 96.1992C184.832 96.2281 185.121 96.5749 185.092 96.9795C185.063 97.3553 184.745 97.6443 184.369 97.6443Z" fill="#826C63"/>
<path d="M186.943 106.792C184.514 106.792 182.085 106.561 179.714 106.113C179.323 106.041 179.063 105.665 179.135 105.26C179.208 104.87 179.598 104.61 179.974 104.682C185.714 105.766 191.714 105.491 197.323 103.887C197.714 103.772 198.104 104.003 198.22 104.379C198.335 104.769 198.104 105.159 197.728 105.275C194.229 106.272 190.586 106.778 186.943 106.778V106.792Z" fill="#826C63"/>
<path d="M192.075 114.378C191.699 114.378 191.381 114.089 191.352 113.699C191.323 113.295 191.626 112.948 192.017 112.919L197.453 112.529C197.814 112.5 198.205 112.803 198.234 113.193C198.263 113.598 197.959 113.945 197.569 113.974L192.132 114.364C192.132 114.364 192.104 114.364 192.075 114.364V114.378Z" fill="#826C63"/>
<path d="M188.446 122.456C188.446 122.456 188.417 122.456 188.403 122.456L181.159 122.009C180.755 121.98 180.451 121.633 180.48 121.243C180.509 120.838 180.798 120.535 181.246 120.563L188.49 121.011C188.894 121.04 189.198 121.387 189.169 121.777C189.14 122.167 188.822 122.456 188.446 122.456Z" fill="#826C63"/>
<path d="M193.723 131.662C190.239 131.662 186.755 131.301 183.328 130.607C182.938 130.52 182.678 130.145 182.764 129.754C182.851 129.364 183.227 129.119 183.617 129.191C188.171 130.13 192.827 130.434 197.453 130.087C197.858 130.058 198.205 130.361 198.234 130.752C198.263 131.156 197.959 131.503 197.569 131.532C196.297 131.633 195.01 131.676 193.723 131.676V131.662Z" fill="#826C63"/>
<path d="M180.292 137.023C179.916 137.023 179.598 136.734 179.569 136.344C179.54 135.939 179.844 135.592 180.249 135.578L186.595 135.144C187 135.116 187.347 135.419 187.362 135.824C187.391 136.228 187.087 136.575 186.682 136.59L180.335 137.023C180.335 137.023 180.306 137.023 180.277 137.023H180.292Z" fill="#826C63"/>
<path d="M200.214 33.8005C200.214 33.8005 200.2 33.8005 200.185 33.8005L190.672 33.4392C190.267 33.4248 189.964 33.0924 189.978 32.6878C189.993 32.2832 190.311 31.9797 190.73 31.9941L200.243 32.3554C200.648 32.3699 200.952 32.7022 200.937 33.1069C200.923 33.497 200.605 33.8005 200.214 33.8005Z" fill="#826C63"/>
<path d="M178.933 20.2165C178.557 20.2165 178.239 19.9275 178.21 19.5374C178.181 19.1327 178.485 18.7859 178.875 18.757L185.222 18.309C185.612 18.2801 185.974 18.5836 186.003 18.9738C186.032 19.3784 185.728 19.7252 185.338 19.7541L178.991 20.2021C178.991 20.2021 178.962 20.2021 178.933 20.2021V20.2165Z" fill="#826C63"/>
<path d="M185.265 13.237C184.889 13.237 184.571 12.9479 184.542 12.5578C184.514 12.1531 184.817 11.8063 185.222 11.7919L191.569 11.3583C191.974 11.3294 192.321 11.6329 192.335 12.0375C192.364 12.4422 192.06 12.789 191.656 12.8034L185.309 13.237C185.309 13.237 185.28 13.237 185.251 13.237H185.265Z" fill="#826C63"/>
<path d="M196.6 21.0403H193.434C193.029 21.0403 192.711 20.7224 192.711 20.3178C192.711 19.9131 193.029 19.5952 193.434 19.5952H196.6C197.005 19.5952 197.323 19.9131 197.323 20.3178C197.323 20.7224 197.005 21.0403 196.6 21.0403Z" fill="#826C63"/>
<g style="mix-blend-mode:multiply" opacity="0.4">
<path d="M203.858 0.837891H175.767V26.5026H203.858V0.837891Z" fill="#876767"/>
</g>
<path d="M146.157 58.8006C145.651 58.8006 145.247 58.396 145.247 57.8902V8.09253C145.247 7.58675 145.651 7.18213 146.157 7.18213C146.663 7.18213 147.068 7.58675 147.068 8.09253V57.9047C147.068 58.4104 146.663 58.8151 146.157 58.8151V58.8006Z" fill="#5E5E4C"/>
<path d="M247.331 0H132.278C130.274 0 128.65 1.6207 128.65 3.61994C128.65 5.61918 130.274 7.23988 132.278 7.23988H247.331C249.335 7.23988 250.96 5.61918 250.96 3.61994C250.96 1.6207 249.335 0 247.331 0Z" fill="#CAC553"/>
<path d="M247.331 148.916H132.264C130.269 148.916 128.635 147.297 128.635 145.289C128.635 143.295 130.254 141.662 132.264 141.662H247.331C249.326 141.662 250.96 143.28 250.96 145.289C250.96 147.283 249.341 148.916 247.331 148.916Z" fill="#DBA172"/>
<path d="M153.112 63.7862C153.112 67.5434 150.25 71.0261 146.317 70.5781C142.587 70.1446 139.97 68.4683 139.522 63.7862C139.161 60.0579 142.573 56.7486 146.317 56.9943C150.842 57.2978 153.112 59.2631 153.112 63.7862Z" fill="#1B9C85"/>
<g style="mix-blend-mode:multiply">
<path d="M148.168 57.2544C150.25 58.0636 151.305 59.7255 151.305 62.5868C151.305 65.8382 148.818 68.8729 145.421 68.4683C142.24 68.107 139.999 66.6619 139.565 62.7602C139.536 63.0925 139.507 63.4394 139.536 63.7862C139.985 68.4683 142.601 70.1446 146.332 70.5781C150.264 71.0261 153.127 67.5434 153.127 63.7862C153.127 60.029 151.464 57.948 148.182 57.2544H148.168Z" fill="#1B9C85"/>
</g>
<path d="M246.666 84.1475L298.541 84.2342V209.436H246.218L246.666 84.1475Z" fill="#E8AF64"/>
<path d="M349.43 145.245C349.43 179.003 359.695 209.537 293.104 209.537C226.513 209.537 236.778 179.003 236.778 145.245C236.778 111.488 247.953 84.1182 293.104 84.1182C338.254 84.1182 349.43 111.488 349.43 145.245Z" fill="#CF9500"/>
<path d="M209.294 95.4337C209.294 95.4337 209.786 77.1245 212.72 75.1736C215.67 73.2083 226.296 80.5638 231.038 85.636L209.294 95.4482V95.4337Z" fill="#E8AF64"/>
<path d="M288.564 98.4536C288.564 98.4536 288.333 76.2716 285.398 74.3062C282.449 72.3409 270.507 81.9218 265.765 86.9796L288.564 98.4536Z" fill="#E8AF64"/>
<path d="M303.513 145.245C303.513 179.003 313.778 209.537 247.187 209.537C180.596 209.537 190.861 179.003 190.861 145.245C190.861 111.488 202.036 84.1182 247.187 84.1182C292.337 84.1182 303.513 111.488 303.513 145.245Z" fill="#FFCB44"/>
<path d="M279.658 155.578C279.658 175.029 285.571 192.63 247.201 192.63C208.831 192.63 214.744 175.029 214.744 155.578C214.744 136.127 221.178 120.347 247.201 120.347C273.225 120.347 279.658 136.113 279.658 155.578Z" fill="#5E5254"/>
<path d="M279.658 155.578C279.658 143.338 275.292 132.558 266.921 126.243C269.35 130.795 270.218 136.474 270.218 142.659C270.218 157.543 274.743 171.011 245.38 171.011C216.016 171.011 220.542 157.543 220.542 142.659C220.542 136.474 221.409 130.795 223.838 126.243C218.792 130.607 212.923 143.338 212.923 155.578C212.923 175.029 211.564 192.63 245.38 192.63C283.75 192.63 279.644 175.029 279.644 155.578H279.658Z" fill="#4C4546"/>
<path d="M245.828 178.742C234.58 178.742 224.243 178.959 216.06 180.231C219.024 187.716 226.932 192.63 247.187 192.63C267.442 192.63 276 187.297 278.661 179.263C270.073 178.063 258.536 178.742 245.828 178.742Z" fill="#1B9C85"/>
<path d="M283.128 90.0578C283.128 90.0578 282.911 80.9971 281.596 80.13C280.295 79.263 275.567 83.4537 273.456 85.6936L283.114 90.0578H283.128Z" fill="#F4CF7C"/>
<path d="M214.123 88.5258C214.123 88.5258 214.325 80.8958 215.554 80.0865C216.783 79.2628 221.207 82.3408 223.188 84.4507L214.123 88.5403V88.5258Z" fill="#F4CF7C"/>
<path d="M209.222 199.277C209.135 199.277 209.034 199.263 208.947 199.219C202.007 196.43 196.817 189.855 195.718 182.456C195.661 182.066 195.935 181.69 196.326 181.633C196.716 181.575 197.092 181.849 197.15 182.24C198.162 189.133 203.005 195.274 209.482 197.875C209.858 198.02 210.032 198.453 209.887 198.815C209.771 199.104 209.497 199.263 209.222 199.263V199.277Z" fill="#E5B668"/>
<path d="M213.516 197.023C213.516 197.023 213.472 197.023 213.443 197.023C211.477 196.82 209.655 195.823 208.441 194.277C208.195 193.959 208.253 193.511 208.557 193.266C208.86 193.02 209.323 193.078 209.569 193.381C210.537 194.609 212.041 195.419 213.588 195.578C213.993 195.621 214.282 195.968 214.238 196.372C214.195 196.748 213.891 197.023 213.516 197.023Z" fill="#E5B668"/>
<path d="M290.704 108.136C290.458 108.136 290.213 108.006 290.082 107.774C285.239 99.523 276.767 93.3814 267.427 91.3149C267.037 91.2282 266.791 90.8381 266.878 90.4479C266.965 90.0577 267.34 89.812 267.745 89.8988C277.475 92.0375 286.294 98.4537 291.34 107.037C291.543 107.384 291.427 107.832 291.08 108.035C290.964 108.107 290.834 108.136 290.719 108.136H290.704Z" fill="#E5B668"/>
<path d="M290.53 117.283C290.183 117.283 289.865 117.023 289.822 116.662C289.374 113.786 288.044 111.026 286.077 108.887C285.803 108.598 285.832 108.136 286.121 107.861C286.41 107.587 286.873 107.601 287.147 107.905C289.316 110.246 290.776 113.28 291.253 116.431C291.311 116.821 291.036 117.196 290.646 117.254C290.603 117.254 290.574 117.254 290.53 117.254V117.283Z" fill="#E5B668"/>
<path d="M296.01 121.214C295.619 121.214 295.301 120.896 295.287 120.506C295.214 118.208 294.492 115.882 293.219 113.96C293.002 113.627 293.089 113.179 293.422 112.963C293.754 112.746 294.202 112.833 294.419 113.165C295.851 115.333 296.646 117.861 296.718 120.463C296.718 120.867 296.414 121.2 296.01 121.214C296.01 121.214 296.01 121.214 295.995 121.214H296.01Z" fill="#E5B668"/>
<path d="M248.387 194.436C247.982 194.436 247.577 194.436 247.187 194.436C235.505 194.364 223.795 193.222 217.361 185.535C211.231 178.208 210.132 165.506 213.79 144.321C216.797 126.965 227.713 118.526 247.187 118.526C266.661 118.526 277.851 127.168 280.699 144.942C284.155 166.589 282.998 178.902 276.839 186.069C270.637 193.28 259.591 194.422 248.387 194.422V194.436ZM247.187 122.153C229.52 122.153 220.05 129.393 217.361 144.942C213.891 164.971 214.759 176.777 220.137 183.208C224.575 188.511 232.411 190.708 247.201 190.809C261.876 190.896 269.668 188.858 274.092 183.714C279.412 177.514 280.352 165.737 277.128 145.52C274.584 129.581 265.071 122.153 247.201 122.153H247.187Z" fill="#E5B668"/>
<path d="M342.823 119.292C342.52 119.292 342.23 119.09 342.129 118.786C339.035 109.075 332.24 100.535 323.464 95.347C323.117 95.1447 323.002 94.6967 323.204 94.3499C323.406 94.0031 323.855 93.8875 324.202 94.0898C333.281 99.4511 340.322 108.281 343.517 118.324C343.633 118.7 343.43 119.119 343.04 119.234C342.968 119.263 342.896 119.263 342.823 119.263V119.292Z" fill="#D6A154"/>
<path d="M341.146 125.896C340.741 125.896 340.423 125.563 340.423 125.159C340.452 121.734 339.44 118.251 337.56 115.376C337.344 115.043 337.43 114.595 337.777 114.378C338.11 114.162 338.558 114.248 338.775 114.595C340.799 117.702 341.898 121.474 341.869 125.188C341.869 125.578 341.536 125.91 341.146 125.91V125.896Z" fill="#D6A154"/>
<path d="M330.708 200.853C330.419 200.853 330.144 200.679 330.028 200.376C329.884 200 330.086 199.581 330.448 199.451C337.72 196.734 343.17 189.451 343.734 181.72C343.763 181.315 344.11 181.012 344.515 181.055C344.92 181.084 345.209 181.431 345.18 181.835C344.587 190.116 338.746 197.919 330.954 200.824C330.867 200.853 330.78 200.867 330.708 200.867V200.853Z" fill="#D6A154"/>
<path d="M325.734 199.508C325.445 199.508 325.171 199.335 325.055 199.031C324.91 198.656 325.113 198.237 325.474 198.107C327.484 197.355 329.291 195.982 330.549 194.248C330.78 193.916 331.243 193.844 331.561 194.089C331.893 194.32 331.966 194.768 331.734 195.101C330.317 197.081 328.279 198.627 325.995 199.479C325.908 199.508 325.821 199.523 325.749 199.523L325.734 199.508Z" fill="#D6A154"/>
<path d="M340.438 184.523C340.351 184.523 340.279 184.523 340.192 184.48C339.816 184.35 339.613 183.93 339.758 183.555C340.698 180.925 341.001 178.063 340.626 175.289C340.568 174.899 340.857 174.523 341.247 174.48C341.623 174.436 342.013 174.711 342.057 175.101C342.462 178.107 342.129 181.199 341.117 184.046C341.016 184.335 340.727 184.523 340.438 184.523Z" fill="#D6A154"/>
<path d="M293.393 204.841C293.104 204.841 292.829 204.667 292.713 204.378C292.569 204.003 292.742 203.584 293.118 203.439C299.06 201.098 303.918 196.387 306.463 190.535C306.622 190.173 307.055 190 307.417 190.159C307.778 190.318 307.952 190.751 307.793 191.113C305.104 197.312 299.942 202.312 293.653 204.798C293.566 204.826 293.48 204.855 293.393 204.855V204.841Z" fill="#D6A154"/>
<path d="M301.258 205.809C300.94 205.809 300.651 205.592 300.564 205.275C300.463 204.884 300.694 204.494 301.084 204.393C303.658 203.714 305.942 201.893 307.2 199.538C307.388 199.176 307.836 199.061 308.183 199.234C308.53 199.422 308.675 199.855 308.487 200.217C307.055 202.919 304.424 205 301.475 205.795C301.417 205.809 301.345 205.824 301.287 205.824L301.258 205.809Z" fill="#D6A154"/>
<path d="M304.149 117.702C303.802 117.702 303.499 117.456 303.441 117.095C302.27 110.202 298.872 103.699 293.899 98.7857C293.61 98.5112 293.61 98.0487 293.899 97.7597C294.173 97.4707 294.636 97.4707 294.925 97.7597C300.116 102.89 303.658 109.667 304.872 116.864C304.944 117.254 304.67 117.63 304.279 117.702C304.236 117.702 304.193 117.702 304.164 117.702H304.149Z" fill="#D6A154"/>
<path d="M4.78043 211.867C-4.6165 191.751 -1.1035 164.772 23.8056 151.65C48.7147 138.514 54.6131 148.933 75.8935 134.902C97.1884 120.87 113.944 95.9565 153.801 108.644C193.659 121.318 213.146 173.847 171.467 214.15C129.788 254.454 23.7911 252.633 4.76597 211.881L4.78043 211.867Z" fill="#202020"/>
<path d="M153.816 108.63C152.558 108.225 151.315 107.864 150.1 107.546C180.633 122.705 193.138 165.653 158.456 199.193C121.042 235.364 25.8875 233.745 8.81396 197.156C4.76606 188.485 3.39266 178.398 5.53227 168.948C-1.99973 182.257 -1.43592 198.557 4.78051 211.867C23.8057 252.618 129.803 254.424 171.482 214.135C213.161 173.846 193.673 121.303 153.816 108.63Z" fill="#CAC553"/>
<path d="M29.445 209.396C29.3438 209.396 29.2426 209.367 29.1414 209.324C17.4596 202.994 9.79697 189.815 10.0572 176.549C10.0572 176.202 10.4042 175.913 10.7078 175.928C11.0548 175.928 11.3295 176.217 11.3295 176.578C11.0837 189.396 18.4861 202.098 29.7486 208.211C30.0522 208.384 30.1679 208.76 30.0089 209.064C29.8932 209.28 29.6763 209.396 29.445 209.396Z" fill="#C9C5BF"/>
<path d="M24.6881 198.948C24.5724 198.948 24.4423 198.919 24.3411 198.847C21.652 197.04 19.6134 194.353 18.6303 191.26C18.5291 190.928 18.7026 190.566 19.0351 190.465C19.3676 190.364 19.7291 190.538 19.8303 190.87C20.7267 193.688 22.5773 196.144 25.0351 197.792C25.3242 197.98 25.3965 198.384 25.2086 198.673C25.0929 198.861 24.8905 198.948 24.6881 198.948Z" fill="#C9C5BF"/>
<path d="M116.734 198.673C116.473 198.673 116.242 198.515 116.141 198.269C116.011 197.936 116.184 197.575 116.502 197.445C125.914 193.847 133.981 187.098 139.186 178.471C139.373 178.168 139.749 178.081 140.053 178.254C140.357 178.428 140.443 178.818 140.27 179.121C134.921 187.994 126.637 194.916 116.965 198.616C116.893 198.645 116.806 198.659 116.734 198.659V198.673Z" fill="#C9C5BF"/>
<path d="M174.634 155.003C174.634 155.003 174.62 155.003 174.605 155.003C174.258 154.988 173.983 154.685 173.998 154.338C174.432 145.234 171.367 135.971 165.583 128.933C165.367 128.659 165.396 128.269 165.67 128.037C165.945 127.821 166.335 127.85 166.567 128.124C172.538 135.407 175.704 144.988 175.256 154.396C175.241 154.728 174.952 155.003 174.62 155.003H174.634Z" fill="#C9C5BF"/>
<path d="M169.661 152.734C169.661 152.734 169.617 152.734 169.588 152.734C169.241 152.691 168.996 152.373 169.039 152.026C169.328 149.541 168.865 146.925 167.752 144.685C167.593 144.367 167.723 143.991 168.041 143.832C168.345 143.674 168.735 143.804 168.894 144.122C170.123 146.578 170.629 149.439 170.311 152.171C170.268 152.489 169.993 152.734 169.69 152.734H169.661Z" fill="#C9C5BF"/>
<path d="M141.556 183.052C141.397 183.052 141.238 182.994 141.108 182.864C140.862 182.618 140.862 182.214 141.108 181.968C143.045 180.003 144.289 177.416 144.607 174.67C144.65 174.323 144.968 174.078 145.315 174.121C145.662 174.165 145.908 174.482 145.865 174.829C145.518 177.849 144.144 180.711 142.005 182.878C141.874 183.008 141.715 183.066 141.556 183.066V183.052Z" fill="#C9C5BF"/>
<path d="M130.034 98.6734C132.752 93.0087 135.47 86 136.598 86C137.726 86 141.803 97.0983 142.265 102.069L136.15 102.98L130.034 98.6734Z" fill="#D29769"/>
<path d="M131.335 99.2807C133.475 94.8298 135.615 89.3096 136.497 89.3096C137.379 89.3096 140.588 98.0379 140.95 101.954L136.135 102.662L131.321 99.2807H131.335Z" fill="#F2E5DC"/>
<path d="M152.674 106.593C152.674 106.593 162.867 94.1361 163.994 94.5985C165.122 95.0465 164.905 104.786 163.546 111.13L158.341 111.578L152.674 106.593Z" fill="#D29769"/>
<path d="M154.51 107.214C154.51 107.214 161.594 98.5578 162.375 98.8757C163.155 99.1937 163.011 105.957 162.057 110.364L158.442 110.682L154.51 107.228V107.214Z" fill="#F2E5DC"/>
<path d="M155.319 137.951C155.319 137.951 154.799 147.734 163.415 158.544C172.032 169.353 182.166 186.188 175.256 191.838C168.345 197.489 168.258 181.607 160.278 173.717C152.298 165.827 144.867 163.11 144.867 163.11C144.867 163.11 140.645 146.362 155.319 137.966V137.951Z" fill="#D29769"/>
<path d="M117.341 120.407C117.341 120.407 111.458 127.647 95.8297 129.005C80.2019 130.364 58.4589 131.043 60.9455 140.783C63.2152 145.985 70.2267 136.939 84.2787 139.193C98.3163 141.462 100.138 148.254 100.138 148.254C100.138 148.254 109.65 140.104 113.496 133.312C117.341 126.52 117.341 120.407 117.341 120.407Z" fill="#D29769"/>
<path d="M147.542 103.673C138.708 100.277 130.02 98.6733 130.02 98.6733C130.02 98.6733 117.341 122.893 98.7642 144.858C88.0951 157.474 79.6379 157.806 71.6577 159.656L98.7931 202.748C117.11 198.442 131.567 187.373 142.033 168.413C159.035 137.604 163.545 111.13 163.545 111.13C163.545 111.13 156.375 107.069 147.542 103.673Z" fill="#D29769"/>
<path d="M142.526 129.656C140.719 133.269 135.615 134.396 131.133 132.156C126.652 129.916 124.468 125.176 126.276 121.549C128.083 117.936 132.926 119.381 137.408 121.607C141.89 123.832 144.333 126.014 142.526 129.642V129.656Z" fill="#F2E5DC"/>
<path d="M129.977 115.783C129.557 116.202 128.863 116.188 128.459 115.769C128.054 115.35 128.054 114.656 128.473 114.252C128.892 113.832 129.586 113.847 129.991 114.266C130.41 114.685 130.396 115.379 129.977 115.783Z" fill="#5E5254"/>
<path d="M145.46 122.387C145.04 122.792 144.361 122.792 143.956 122.373C143.551 121.954 143.551 121.275 143.971 120.87C144.39 120.465 145.069 120.465 145.474 120.884C145.879 121.304 145.879 121.983 145.46 122.387Z" fill="#5E5254"/>
<path d="M132.622 108.804C132.622 108.804 132.492 108.789 132.435 108.76C131.596 108.283 130.541 108.24 129.673 108.659C129.485 108.746 129.254 108.659 129.167 108.471C129.08 108.283 129.167 108.052 129.355 107.966C130.439 107.445 131.769 107.503 132.825 108.096C132.998 108.197 133.071 108.428 132.969 108.616C132.897 108.746 132.767 108.804 132.637 108.804H132.622Z" fill="#5E5254"/>
<path d="M149.219 117.416C149.074 117.416 148.944 117.329 148.872 117.199C148.423 116.217 147.542 115.422 146.53 115.075C146.327 115.003 146.226 114.786 146.298 114.598C146.37 114.396 146.587 114.295 146.775 114.367C148.004 114.801 149.016 115.711 149.566 116.896C149.652 117.084 149.566 117.315 149.378 117.402C149.32 117.431 149.276 117.431 149.219 117.431V117.416Z" fill="#5E5254"/>
<path d="M134.299 120.248C133.576 120.928 134.891 122.85 135.658 123.167C136.424 123.485 138.448 122.893 138.304 121.968C138.188 121.217 134.993 119.598 134.299 120.248Z" fill="#5E5254"/>
<path d="M138.825 126.982C137.682 126.939 136.786 126.563 136.164 125.87C135.615 125.248 135.398 124.511 135.326 123.948C134.791 124.323 133.952 124.757 133.027 124.699C132.131 124.627 131.35 124.136 130.699 123.196C130.584 123.023 130.613 122.777 130.786 122.662C130.96 122.546 131.191 122.575 131.321 122.748C131.841 123.485 132.434 123.876 133.07 123.919C134.27 124.006 135.369 122.893 135.369 122.878C135.485 122.763 135.658 122.719 135.803 122.792C135.947 122.864 136.034 123.008 136.034 123.167C136.034 123.167 135.947 124.468 136.728 125.335C137.205 125.87 137.914 126.144 138.839 126.188C139.056 126.188 139.215 126.376 139.215 126.578C139.215 126.78 139.041 126.954 138.839 126.954L138.825 126.982Z" fill="#5E5254"/>
<path d="M134.4 128.615C134.4 128.615 134.386 128.615 134.371 128.615C133.663 128.557 132.983 128.297 132.419 127.878C132.246 127.748 132.217 127.517 132.347 127.344C132.477 127.17 132.708 127.141 132.882 127.271C133.33 127.604 133.879 127.82 134.443 127.864C134.66 127.878 134.805 128.066 134.79 128.283C134.776 128.485 134.602 128.63 134.414 128.63L134.4 128.615Z" fill="#5E5254"/>
<path d="M121.808 117.835C121.736 117.835 121.664 117.821 121.592 117.777L117.847 115.306C117.673 115.191 117.616 114.959 117.731 114.771C117.847 114.598 118.093 114.54 118.266 114.656L122.011 117.127C122.184 117.243 122.242 117.488 122.126 117.662C122.054 117.777 121.924 117.835 121.808 117.835Z" fill="#5E5254"/>
<path d="M120.478 119.425C120.478 119.425 120.363 119.425 120.305 119.381L116.965 117.763C116.777 117.676 116.69 117.445 116.792 117.257C116.878 117.069 117.11 116.983 117.298 117.084L120.637 118.702C120.825 118.789 120.912 119.02 120.811 119.208C120.738 119.338 120.608 119.425 120.464 119.425H120.478Z" fill="#5E5254"/>
<path d="M153.353 131.433C153.353 131.433 153.296 131.433 153.267 131.433C152.587 131.274 151.59 130.985 150.635 130.696C149.681 130.407 148.712 130.118 148.062 129.974C147.859 129.93 147.729 129.728 147.773 129.511C147.816 129.309 148.033 129.179 148.235 129.222C148.9 129.381 149.898 129.67 150.852 129.959C151.806 130.248 152.79 130.537 153.44 130.682C153.643 130.725 153.773 130.927 153.729 131.144C153.686 131.318 153.527 131.448 153.353 131.448V131.433Z" fill="#5E5254"/>
<path d="M151.908 133.572C151.908 133.572 151.806 133.572 151.763 133.543C151.329 133.37 150.462 133.023 149.58 132.676C148.698 132.329 147.816 131.982 147.382 131.809C147.18 131.722 147.093 131.505 147.18 131.303C147.267 131.101 147.484 131.014 147.686 131.101C148.12 131.274 148.987 131.621 149.869 131.968C150.751 132.315 151.633 132.662 152.067 132.835C152.269 132.922 152.356 133.138 152.269 133.341C152.211 133.485 152.067 133.572 151.908 133.572Z" fill="#5E5254"/>
<path d="M124.7 108.297C124.7 108.297 120.594 116.534 126.738 118.933C133.981 121.766 137.162 114.179 137.162 114.179L124.7 108.297Z" fill="#5E5254"/>
<path d="M140.429 115.422C140.429 115.422 136.684 123.442 142.829 125.841C150.072 128.673 153.253 121.087 153.253 121.087L140.429 115.422Z" fill="#5E5254"/>
<path d="M160.828 125.393C160.698 125.393 160.582 125.364 160.452 125.306L123.529 108.774C123.066 108.572 122.864 108.037 123.066 107.575C123.269 107.112 123.803 106.91 124.266 107.112L161.189 123.644C161.652 123.847 161.854 124.381 161.652 124.844C161.507 125.176 161.175 125.378 160.828 125.378V125.393Z" fill="#84AB9E"/>
<path d="M129.861 120.465C128.806 120.465 127.664 120.263 126.42 119.772C124.7 119.107 123.514 117.965 122.907 116.39C121.505 112.749 123.789 108.081 123.89 107.893C124.107 107.46 124.642 107.272 125.09 107.474L137.553 113.355C137.986 113.558 138.189 114.078 138.001 114.526C137.018 116.867 134.242 120.465 129.861 120.465ZM125.162 109.512C124.642 110.87 123.789 113.63 124.599 115.74C125.018 116.824 125.827 117.59 127.071 118.081C132.145 120.061 134.965 116.303 135.933 114.598L125.162 109.512Z" fill="#84AB9E"/>
<path d="M145.937 127.372C144.882 127.372 143.74 127.17 142.496 126.679C140.747 125.999 139.532 124.843 138.896 123.239C137.465 119.67 139.518 115.205 139.605 115.017C139.807 114.569 140.342 114.366 140.79 114.569L153.614 120.234C154.062 120.436 154.279 120.956 154.077 121.404C153.094 123.745 150.318 127.343 145.937 127.343V127.372ZM140.92 116.621C140.458 117.921 139.749 120.537 140.573 122.575C141.022 123.702 141.875 124.482 143.147 124.988C148.222 126.968 151.026 123.239 151.995 121.52L140.906 116.621H140.92Z" fill="#84AB9E"/>
<path d="M126.03 111.347C126.03 111.347 124.815 114.613 126.478 115.277C128.43 116.058 129.5 113.095 129.5 113.095L126.03 111.361V111.347Z" fill="#F2E5DC"/>
<path d="M141.73 117.835C141.73 117.835 140.516 121.101 142.178 121.766C144.13 122.546 145.2 119.584 145.2 119.584L141.73 117.849V117.835Z" fill="#F2E5DC"/>
<path d="M83.0063 156.867C72.9588 160.856 63.8221 156.361 51.2158 158.153C38.6094 159.945 28.9668 165.437 27.0585 165.581C25.1502 165.726 25.1791 167.445 23.4298 167.619C17.3435 168.24 20.018 175.278 24.1671 176.13C30.3835 177.387 33.1592 174.136 43.6982 174.309C54.2517 174.483 69.4747 177.098 74.7948 184.367L87.2566 179.425L83.0063 156.867Z" fill="#D29769"/>
<path d="M73.5516 183.124C74.7082 185.913 69.9085 186.563 62.4633 191.693C55.524 196.477 50.2328 203.24 48.6136 204.063C46.9945 204.887 45.7078 206.289 45.0573 207.055C41.472 211.202 42.8743 214.439 46.1271 215.118C52.0833 216.347 61.7983 208.875 71.2964 206.014C80.7945 203.153 91.5648 205.451 101.092 202.257C110.344 199.164 94.8032 174.193 94.8032 174.193L73.5372 183.138L73.5516 183.124Z" fill="#D29769"/>
<path d="M46.2142 215.162C41.0817 214.584 38.6383 205.624 40.6624 204.656C42.6865 203.673 43.2648 205.855 43.2648 205.855C43.2648 205.855 44.3925 202.243 47.3274 202.604C50.2768 202.965 50.5226 206.809 50.5226 206.809C50.5226 206.809 51.6792 204.338 54.2527 206.029C56.8261 207.705 52.431 215.87 46.1997 215.162H46.2142Z" fill="#D29769"/>
<path d="M46.5179 209.121C44.5227 208.861 42.8601 211.116 43.5974 212.358C44.3348 213.601 47.6601 214.324 49.0625 212.922C50.4649 211.52 48.4408 209.381 46.5179 209.121Z" fill="#5E5254"/>
<path d="M48.2671 206.361C48.0358 207.3 47.2406 207.907 46.5177 207.734C45.7948 207.56 45.39 206.636 45.6358 205.696C45.8671 204.757 46.6623 204.15 47.3852 204.323C48.108 204.511 48.5129 205.422 48.2671 206.361Z" fill="#5E5254"/>
<path d="M43.0335 207.026C43.2504 207.792 42.9468 208.558 42.354 208.731C41.7613 208.904 41.0962 208.413 40.8793 207.647C40.6625 206.881 40.9661 206.115 41.5589 205.942C42.1516 205.769 42.8167 206.26 43.0335 207.026Z" fill="#5E5254"/>
<path d="M52.7052 208.745C52.2281 209.381 51.4329 209.598 50.9414 209.236C50.4498 208.861 50.4353 208.052 50.9125 207.401C51.3896 206.765 52.1847 206.549 52.6763 206.91C53.1679 207.286 53.1823 208.095 52.7052 208.745Z" fill="#5E5254"/>
<path d="M24.1673 176.13C19.7288 175.682 17.9939 166.867 19.8011 165.841C21.5939 164.815 22.0131 166.968 22.0131 166.968C22.0131 166.968 23.1408 163.355 25.6854 163.644C28.23 163.933 28.2878 167.734 28.2878 167.734C28.2878 167.734 29.401 165.263 31.5697 166.867C33.7384 168.471 29.5601 176.665 24.1818 176.115L24.1673 176.13Z" fill="#D29769"/>
<path d="M24.6879 170.147C22.9674 169.93 21.4205 172.214 22.0132 173.428C22.606 174.641 25.4542 175.277 26.7409 173.861C28.0277 172.445 26.3506 170.364 24.6879 170.162V170.147Z" fill="#5E5254"/>
<path d="M26.3216 167.358C26.0758 168.298 25.3674 168.919 24.7457 168.76C24.124 168.601 23.8204 167.705 24.0662 166.766C24.312 165.827 25.0204 165.205 25.6421 165.364C26.2638 165.523 26.5674 166.419 26.3216 167.358Z" fill="#5E5254"/>
<path d="M21.7376 168.139C21.8966 168.89 21.5931 169.656 21.0729 169.844C20.5527 170.032 19.9891 169.555 19.8446 168.803C19.6856 168.052 19.9891 167.286 20.5093 167.098C21.0295 166.91 21.5931 167.387 21.7376 168.139Z" fill="#5E5254"/>
<path d="M30.0803 169.612C29.6321 170.263 28.9381 170.494 28.5189 170.133C28.0996 169.771 28.1285 168.962 28.5767 168.312C29.0249 167.662 29.7189 167.43 30.1381 167.792C30.5574 168.153 30.5285 168.962 30.0803 169.612Z" fill="#5E5254"/>
<path d="M126.479 142.286C133.548 146.809 129.789 164.959 121.347 174.887C111.082 186.968 88.3844 191.693 82.9919 179.107C79.3632 170.653 82.9485 165.176 95.6708 153.442C107.15 142.878 118.918 137.445 126.479 142.271V142.286Z" fill="#F2E5DC"/>
<path d="M169.892 170.668C168.981 170.899 168.302 169.309 167.405 169.757C166.495 170.205 168.316 173.153 166.957 173.832C165.598 174.512 163.56 171.795 162.649 172.243C162.056 172.532 161.955 174.367 161.94 175.61C168.302 183.861 168.851 197.04 175.242 191.824C180.215 187.749 176.34 177.893 170.572 168.645C170.528 169.526 170.384 170.523 169.878 170.653L169.892 170.668Z" fill="#F2E5DC"/>
<path d="M60.9453 140.783C62.5212 144.396 66.3959 141.13 73.3356 139.569C72.3525 138.948 71.2681 138.211 71.138 137.849C70.9067 137.17 73.8561 136.043 73.4079 135.364C72.9597 134.685 70.2416 135.133 70.2416 134.237C70.2416 133.341 72.5115 133.326 72.5115 132.647C72.5115 132.358 71.9476 132.084 71.2971 131.838C64.3863 133.399 59.7309 136 60.9598 140.797L60.9453 140.783Z" fill="#F2E5DC"/>
<path d="M102.494 196.91C103.737 204.656 115.245 224.15 140.992 220.899C166.74 217.647 163.155 192.243 151.734 188.919C141.788 186.014 133.981 193.919 135.239 201.159C135.86 204.728 138.347 204.916 139.648 204.497C140.732 204.15 140.4 201.246 140.978 199.165C142.294 194.497 148.452 192.705 151.719 195.913C156.389 200.494 154.712 212.647 140.718 214.656C126.724 216.65 111.226 206.665 109.968 195.913L102.465 196.91H102.494Z" fill="#D29769"/>
<path d="M139.648 194.902C138.492 195.061 138.651 192.922 137.494 193.067C135.644 195.408 134.747 198.327 135.239 201.145C135.86 204.714 138.362 204.902 139.648 204.483C140.733 204.136 140.4 201.231 140.979 199.15C141.239 198.24 141.672 197.445 142.236 196.78C141.73 195.942 140.545 194.786 139.648 194.902Z" fill="#F2E5DC"/>
<path d="M98.0993 199.454C97.868 199.454 97.6656 199.281 97.6511 199.049C97.6222 198.804 97.8102 198.572 98.0559 198.558C105.415 197.879 112.456 194.757 117.921 189.772C118.109 189.598 118.398 189.613 118.557 189.801C118.73 189.989 118.716 190.278 118.528 190.437C112.933 195.552 105.69 198.746 98.1427 199.454C98.1427 199.454 98.1138 199.454 98.0993 199.454Z" fill="#C18257"/>
<path d="M115.534 189.902C115.361 189.902 115.202 189.801 115.129 189.642C115.028 189.411 115.129 189.151 115.346 189.035C117.11 188.226 118.7 187.012 119.958 185.538C120.117 185.35 120.406 185.321 120.594 185.48C120.782 185.639 120.811 185.928 120.652 186.116C119.308 187.691 117.616 188.977 115.736 189.844C115.679 189.873 115.606 189.888 115.549 189.888L115.534 189.902Z" fill="#C18257"/>
<path d="M94.7598 198.342C94.3405 198.342 93.9357 198.327 93.5164 198.284C93.2706 198.255 93.0827 198.038 93.1116 197.792C93.1405 197.547 93.3718 197.359 93.6031 197.388C95.7718 197.59 97.9694 197.214 99.9356 196.304C100.167 196.188 100.427 196.304 100.543 196.521C100.644 196.752 100.543 197.012 100.326 197.128C98.5766 197.937 96.6826 198.356 94.7598 198.356V198.342Z" fill="#C18257"/>
<path d="M91.0878 200.726C90.3649 200.726 89.6564 200.639 88.948 200.48C88.7022 200.422 88.5577 200.177 88.6155 199.931C88.6733 199.685 88.9046 199.541 89.1649 199.599C90.5817 199.931 92.0709 199.902 93.4588 199.483C93.7046 199.411 93.9504 199.555 94.0227 199.787C94.095 200.032 93.9504 200.278 93.7191 200.35C92.8661 200.596 91.9841 200.726 91.1022 200.726H91.0878Z" fill="#C18257"/>
<path d="M114.681 147.561C114.566 147.561 114.45 147.517 114.349 147.416C114.175 147.243 114.175 146.954 114.349 146.78C115.216 145.957 116.272 145.292 117.399 144.887C117.631 144.801 117.891 144.931 117.978 145.162C118.065 145.393 117.934 145.653 117.703 145.74C116.691 146.101 115.751 146.694 114.971 147.431C114.884 147.517 114.768 147.561 114.652 147.561H114.681Z" fill="#CCB9AD"/>
<path d="M118.165 148.327C118.05 148.327 117.934 148.283 117.847 148.197C117.674 148.023 117.659 147.734 117.833 147.561C118.932 146.405 120.189 145.422 121.592 144.642C121.809 144.526 122.083 144.598 122.214 144.815C122.329 145.032 122.257 145.306 122.04 145.436C120.724 146.173 119.539 147.098 118.498 148.182C118.411 148.283 118.295 148.327 118.165 148.327Z" fill="#CCB9AD"/>
<path d="M119.684 150.74C119.568 150.74 119.452 150.696 119.365 150.61C119.192 150.436 119.192 150.147 119.365 149.974L120.869 148.471C121.043 148.297 121.332 148.297 121.505 148.471C121.679 148.644 121.679 148.933 121.505 149.107L120.002 150.61C119.915 150.696 119.799 150.74 119.684 150.74Z" fill="#CCB9AD"/>
<path d="M122.849 151.188C122.748 151.188 122.647 151.159 122.56 151.087C122.372 150.928 122.343 150.639 122.502 150.451C123.182 149.627 123.688 148.645 123.962 147.619C124.02 147.373 124.28 147.229 124.512 147.301C124.758 147.359 124.902 147.619 124.83 147.85C124.512 149.006 123.948 150.09 123.196 151.015C123.109 151.13 122.979 151.188 122.849 151.188Z" fill="#CCB9AD"/>
<path d="M123.919 153.616C123.847 153.616 123.76 153.601 123.688 153.558C123.471 153.428 123.399 153.153 123.514 152.937L124.729 150.827C124.845 150.61 125.134 150.538 125.351 150.653C125.567 150.783 125.64 151.058 125.524 151.275L124.324 153.385C124.237 153.529 124.093 153.616 123.934 153.616H123.919Z" fill="#CCB9AD"/>
<path d="M134.979 135.596C131.741 135.596 128.531 134.078 126.507 131.549C126.348 131.347 126.377 131.072 126.579 130.914C126.767 130.755 127.056 130.783 127.215 130.986C129.167 133.414 132.348 134.83 135.442 134.685C135.731 134.685 135.904 134.859 135.919 135.119C135.919 135.364 135.745 135.581 135.485 135.596C135.312 135.596 135.153 135.596 134.979 135.596Z" fill="#C18257"/>
<path d="M158.558 154.815C158.428 154.815 158.283 154.757 158.197 154.642C155.724 151.405 154.047 147.59 153.324 143.587C153.281 143.341 153.44 143.11 153.686 143.067C153.946 143.023 154.163 143.182 154.206 143.428C154.9 147.286 156.519 150.971 158.905 154.093C159.064 154.295 159.021 154.57 158.818 154.729C158.731 154.786 158.645 154.815 158.543 154.815H158.558Z" fill="#C18257"/>
<path d="M153.816 150.292C153.657 150.292 153.498 150.205 153.425 150.06C152.356 148.11 151.647 146 151.329 143.789C151.3 143.543 151.459 143.312 151.719 143.283C151.965 143.24 152.197 143.413 152.225 143.673C152.529 145.769 153.194 147.777 154.206 149.627C154.322 149.844 154.25 150.118 154.033 150.248C153.96 150.292 153.888 150.306 153.816 150.306V150.292Z" fill="#C18257"/>
<path d="M98.1859 131.332C97.9257 131.332 97.6655 131.332 97.3908 131.332C97.145 131.332 96.9426 131.116 96.957 130.87C96.957 130.624 97.1594 130.422 97.4052 130.422C102.191 130.552 106.976 129.468 111.227 127.272C111.444 127.156 111.718 127.243 111.834 127.474C111.95 127.691 111.863 127.965 111.646 128.081C107.482 130.22 102.841 131.347 98.1715 131.347L98.1859 131.332Z" fill="#C18257"/>
<path d="M96.1621 133.63C95.4392 133.63 94.7019 133.587 93.9645 133.5C93.7188 133.471 93.5453 133.24 93.5742 132.994C93.6031 132.749 93.8055 132.561 94.0802 132.604C96.0898 132.85 98.0995 132.734 100.051 132.286C100.297 132.228 100.543 132.387 100.601 132.633C100.658 132.879 100.499 133.124 100.254 133.182C98.9091 133.486 97.5356 133.645 96.1621 133.645V133.63Z" fill="#C18257"/>
<path d="M65.4856 161.809C65.4856 161.809 65.3988 161.809 65.3555 161.795C61.0904 160.508 56.5507 160.35 52.2134 161.347C51.9676 161.404 51.7218 161.245 51.664 161C51.6062 160.754 51.7652 160.508 52.011 160.451C56.5073 159.425 61.2061 159.584 65.6157 160.913C65.8615 160.985 65.9916 161.245 65.9193 161.477C65.8615 161.679 65.6735 161.795 65.4856 161.795V161.809Z" fill="#C18257"/>
<path d="M48.7145 164.107C48.5121 164.107 48.3241 163.962 48.2808 163.76C48.2229 163.514 48.3675 163.269 48.6133 163.211C50.594 162.72 52.6325 162.561 54.6566 162.748C54.9024 162.777 55.0904 162.994 55.0759 163.24C55.047 163.485 54.8301 163.673 54.5843 163.644C52.647 163.471 50.7241 163.63 48.8446 164.092C48.8012 164.092 48.7723 164.092 48.729 164.092L48.7145 164.107Z" fill="#C18257"/>
<path d="M69.0992 165.017C69.0125 165.017 68.9402 164.988 68.8534 164.945C67.9282 164.367 66.8583 164.063 65.7017 164.078C65.4703 164.078 65.239 163.89 65.239 163.63C65.239 163.384 65.427 163.167 65.6872 163.167C66.9161 163.153 68.2462 163.5 69.3305 164.165C69.5474 164.295 69.6052 164.569 69.4751 164.786C69.3884 164.93 69.2438 165.003 69.0848 165.003L69.0992 165.017Z" fill="#C18257"/>
<path d="M59.8177 196.708C59.7165 196.708 59.6008 196.665 59.514 196.592C59.3261 196.433 59.2972 196.144 59.4707 195.957C61.1622 193.991 63.3453 192.46 65.7742 191.535C66.0056 191.448 66.2658 191.564 66.367 191.795C66.4538 192.026 66.3381 192.286 66.1068 192.373C63.8224 193.254 61.7695 194.699 60.1646 196.549C60.0779 196.65 59.9478 196.708 59.8177 196.708Z" fill="#C18257"/>
<path d="M66.381 194.208C66.2364 194.208 66.0774 194.136 65.9907 193.991C65.8605 193.775 65.9328 193.5 66.1352 193.37C67.6244 192.445 69.3449 191.882 71.0942 191.723C71.3545 191.694 71.5569 191.882 71.5858 192.127C71.6147 192.373 71.4268 192.59 71.181 192.619C69.5762 192.763 68.0003 193.283 66.6268 194.136C66.5545 194.179 66.4678 194.208 66.381 194.208Z" fill="#C18257"/>
<path d="M148.525 107.286C148.525 107.286 148.38 107.272 148.323 107.228C146.197 106.13 143.913 105.407 141.542 105.09C141.296 105.061 141.123 104.829 141.152 104.584C141.181 104.338 141.426 104.165 141.658 104.194C144.13 104.526 146.515 105.277 148.742 106.419C148.959 106.535 149.045 106.809 148.93 107.026C148.843 107.185 148.684 107.272 148.525 107.272V107.286Z" fill="#C18257"/>
<path d="M148.829 109.367C148.829 109.367 148.728 109.367 148.684 109.339L145.822 108.399C145.59 108.327 145.46 108.067 145.532 107.821C145.619 107.59 145.865 107.46 146.111 107.532L148.973 108.471C149.205 108.544 149.335 108.804 149.263 109.05C149.205 109.237 149.017 109.353 148.829 109.353V109.367Z" fill="#C18257"/>
<path d="M152.601 108.327C152.601 108.327 152.471 108.327 152.413 108.283L151.054 107.676C150.823 107.575 150.722 107.301 150.823 107.084C150.924 106.853 151.199 106.751 151.416 106.853L152.775 107.46C153.006 107.561 153.107 107.835 153.006 108.052C152.934 108.225 152.76 108.327 152.587 108.327H152.601Z" fill="#C18257"/>
<path d="M141.585 107.127C141.585 107.127 141.484 107.127 141.441 107.098L139.634 106.492C139.402 106.419 139.272 106.159 139.344 105.913C139.417 105.682 139.691 105.552 139.923 105.624L141.73 106.231C141.961 106.304 142.091 106.564 142.019 106.809C141.961 106.997 141.773 107.113 141.585 107.113V107.127Z" fill="#C18257"/>
<path d="M140.978 103.5C140.978 103.5 140.906 103.5 140.877 103.5L138.303 102.893C138.058 102.835 137.913 102.59 137.971 102.344C138.029 102.098 138.275 101.954 138.52 102.012L141.094 102.619C141.34 102.676 141.484 102.922 141.426 103.168C141.383 103.37 141.195 103.515 140.993 103.515L140.978 103.5Z" fill="#C18257"/>
<path d="M142.8 166.982L135.08 165.841L140.01 171.867C140.69 170.74 141.369 169.584 142.02 168.399C142.28 167.922 142.54 167.445 142.786 166.968L142.8 166.982Z" fill="#C18257"/>
<path d="M130.57 184.41L124.656 182.445L126.131 188.745C127.664 187.387 129.124 185.942 130.555 184.41H130.57Z" fill="#C18257"/>
<path d="M130.555 175.19L133.504 181.086C134.69 179.656 135.818 178.124 136.931 176.549L130.555 175.19Z" fill="#C18257"/>
<path d="M146.168 213.11C146.024 213.182 145.879 213.254 145.735 213.312L144.968 220.147C146.718 219.714 148.308 219.165 149.739 218.514L146.183 213.11H146.168Z" fill="#C18257"/>
<path d="M157.344 193.052L155.146 195.899L158.558 194.988C158.197 194.309 157.792 193.659 157.358 193.052H157.344Z" fill="#C18257"/>
<path d="M153.816 210.061L155.898 214.208C156.577 213.485 157.185 212.719 157.705 211.939L153.816 210.061Z" fill="#C18257"/>
<path d="M160.293 204.902C160.408 203.905 160.437 202.922 160.394 201.954L157.141 203.573L160.293 204.902Z" fill="#C18257"/>
<path d="M149.667 188.471L150.476 192.416L152.703 189.266C152.385 189.136 152.052 189.006 151.72 188.919C151.026 188.717 150.332 188.572 149.652 188.471H149.667Z" fill="#C18257"/>
<path d="M143.653 192.069L144.072 188.774C142.785 189.121 141.585 189.641 140.53 190.321L143.653 192.069Z" fill="#C18257"/>
<path d="M108.927 209.338C109.983 210.581 111.168 211.809 112.499 212.98L115.491 206.043C115.318 205.87 115.13 205.711 114.971 205.538L108.927 209.338Z" fill="#C18257"/>
<path d="M136.381 214.858C136.222 214.858 136.063 214.858 135.904 214.858L133.938 221.217C135.326 221.26 136.757 221.246 138.232 221.145L136.381 214.858Z" fill="#C18257"/>
<path d="M124.122 211.925L119.886 217.835C121.39 218.558 123.009 219.194 124.729 219.714L124.946 212.301C124.671 212.185 124.397 212.04 124.137 211.925H124.122Z" fill="#C18257"/>
<path d="M172.205 186.101C171.973 186.202 171.858 186.463 171.959 186.694C172.768 188.659 173.144 190.841 173.072 192.98C173.361 192.922 173.65 192.821 173.968 192.676C173.996 190.509 173.606 188.341 172.797 186.347C172.696 186.116 172.436 186 172.205 186.101Z" fill="#CCB9AD"/>
<path d="M175.096 184.092C174.879 184.208 174.793 184.483 174.908 184.699C175.848 186.491 176.34 188.485 176.412 190.494C176.744 189.988 177.005 189.439 177.193 188.832C176.947 187.243 176.455 185.696 175.704 184.28C175.588 184.063 175.313 183.977 175.096 184.092Z" fill="#CCB9AD"/>
<path d="M65.2681 138.746C65.5139 138.746 65.7163 138.515 65.7018 138.269C65.7018 138.024 65.4994 137.792 65.2247 137.836C63.5187 137.923 61.885 138.804 60.8296 140.148C60.8585 140.365 60.8874 140.567 60.9452 140.784C61.0175 140.957 61.1043 141.102 61.191 141.246C62.044 139.83 63.6055 138.818 65.2681 138.732V138.746Z" fill="#CCB9AD"/>
<path d="M64.3426 135.971C64.2992 135.726 64.0824 135.552 63.8366 135.581C63.186 135.668 62.5643 135.87 61.9715 136.145C61.5378 136.651 61.2197 137.2 61.0173 137.792C61.8559 137.099 62.8824 136.622 63.9667 136.477C64.2125 136.448 64.386 136.217 64.3571 135.971H64.3426Z" fill="#CCB9AD"/>
<path d="M282.796 227.731C282.796 229.537 281.379 231.011 279.629 231.011C277.88 231.011 276.463 229.537 276.463 227.731C276.463 225.925 277.88 224.451 279.629 224.451C281.379 224.451 282.796 225.925 282.796 227.731Z" fill="#A87152"/>
<path d="M313.069 230.419C314.818 230.419 316.236 228.95 316.236 227.139C316.236 225.327 314.818 223.858 313.069 223.858C311.321 223.858 309.903 225.327 309.903 227.139C309.903 228.95 311.321 230.419 313.069 230.419Z" fill="#A87152"/>
<path d="M306.043 226.301C306.043 228.107 304.626 229.581 302.877 229.581C301.128 229.581 299.711 228.107 299.711 226.301C299.711 224.495 301.128 223.021 302.877 223.021C304.626 223.021 306.043 224.495 306.043 226.301Z" fill="#A87152"/>
<path d="M291.774 226.228C291.774 228.034 290.357 229.508 288.608 229.508C286.858 229.508 285.441 228.034 285.441 226.228C285.441 224.422 286.858 222.948 288.608 222.948C290.357 222.948 291.774 224.422 291.774 226.228Z" fill="#A87152"/>
<path d="M323.855 227.356C323.855 229.162 322.438 230.636 320.689 230.636C318.939 230.636 317.522 229.162 317.522 227.356C317.522 225.549 318.939 224.075 320.689 224.075C322.438 224.075 323.855 225.549 323.855 227.356Z" fill="#A87152"/>
<path d="M284.299 231.431C286.048 231.431 287.466 229.962 287.466 228.15C287.466 226.339 286.048 224.87 284.299 224.87C282.551 224.87 281.133 226.339 281.133 228.15C281.133 229.962 282.551 231.431 284.299 231.431Z" fill="#BD8560"/>
<path d="M300.911 226.084C300.911 227.89 299.494 229.364 297.744 229.364C295.995 229.364 294.578 227.89 294.578 226.084C294.578 224.278 295.995 222.804 297.744 222.804C299.494 222.804 300.911 224.278 300.911 226.084Z" fill="#BD8560"/>
<path d="M329.218 227.732C329.218 229.538 327.802 231.012 326.052 231.012C324.303 231.012 322.886 229.538 322.886 227.732C322.886 225.925 324.303 224.451 326.052 224.451C327.802 224.451 329.218 225.925 329.218 227.732Z" fill="#BD8560"/>
<path d="M319.633 225.78C319.633 227.587 318.216 229.061 316.467 229.061C314.718 229.061 313.301 227.587 313.301 225.78C313.301 223.974 314.718 222.5 316.467 222.5C318.216 222.5 319.633 223.974 319.633 225.78Z" fill="#BD8560"/>
<path d="M296.299 224.422C296.299 226.228 294.882 227.702 293.133 227.702C291.383 227.702 289.966 226.228 289.966 224.422C289.966 222.616 291.383 221.142 293.133 221.142C294.882 221.142 296.299 222.616 296.299 224.422Z" fill="#BD8560"/>
<path d="M311.248 226.229C311.248 228.035 309.831 229.509 308.082 229.509C306.332 229.509 304.915 228.035 304.915 226.229C304.915 224.422 306.332 222.948 308.082 222.948C309.831 222.948 311.248 224.422 311.248 226.229Z" fill="#BD8560"/>
<path d="M305.595 227.919C307.344 227.919 308.761 226.45 308.761 224.639C308.761 222.827 307.344 221.358 305.595 221.358C303.846 221.358 302.429 222.827 302.429 224.639C302.429 226.45 303.846 227.919 305.595 227.919Z" fill="#BD8560"/>
<path d="M329.956 226.908H276.174C274.02 226.908 272.097 228.252 271.331 230.275C269.046 236.344 267.803 242.544 267.629 248.887C267.615 249.494 268.121 250 268.728 250H337.459C338.095 250 338.616 249.437 338.543 248.801C337.922 242.255 336.707 236.142 334.842 230.463C334.148 228.338 332.168 226.908 329.941 226.908H329.956Z" fill="#D82148"/>
<path d="M334.857 230.462C334.163 228.338 332.183 226.907 329.956 226.907H313.041C315.267 226.907 317.248 228.338 317.942 230.462C319.807 236.141 321.021 242.254 321.643 248.8C321.701 249.436 321.195 250 320.559 250H337.474C338.11 250 338.631 249.436 338.558 248.8C337.937 242.254 336.722 236.141 334.857 230.462Z" fill="#AD1A3A"/>
<path d="M308.689 239.075C308.689 240.332 306.116 244.104 299.624 244.104C293.133 244.104 290.559 240.332 290.559 239.075C290.559 237.818 294.029 234.046 299.624 234.046C305.219 234.046 308.689 237.818 308.689 239.075Z" fill="white"/>
<path d="M315.484 235.953C315.325 235.375 312.896 234.898 310.424 235.852C307.951 236.82 307.402 238.453 307.402 238.453V239.06V239.681C307.402 239.681 307.951 241.314 310.424 242.283C312.896 243.251 315.31 242.759 315.484 242.181C315.643 241.603 313.257 239.465 313.127 239.06C313.257 238.655 315.643 236.517 315.484 235.939V235.953Z" fill="white"/>
<path d="M334.813 230.463V230.434C334.12 228.324 332.153 226.908 329.941 226.908H276.188C274.063 226.908 272.14 228.208 271.389 230.203L271.287 230.463H334.828H334.813Z" fill="#5E5254"/>
<path d="M284.415 239.364C284.415 240.491 283.562 241.532 282.376 241.402C281.263 241.272 280.482 240.766 280.338 239.364C280.237 238.251 281.249 237.254 282.376 237.326C283.735 237.413 284.415 238.006 284.415 239.364Z" fill="#FFB800"/>
<path d="M325.864 239.364C325.864 240.491 325.011 241.532 323.826 241.402C322.712 241.272 321.932 240.766 321.787 239.364C321.686 238.251 322.698 237.254 323.826 237.326C325.185 237.413 325.864 238.006 325.864 239.364Z" fill="#FFB800"/>
<path d="M298.221 238.237C298.221 238.858 297.744 239.436 297.094 239.364C296.472 239.292 296.038 239.017 295.966 238.237C295.908 237.616 296.472 237.066 297.094 237.11C297.846 237.153 298.221 237.486 298.221 238.237Z" fill="#202020"/>
<path d="M317.942 230.462H334.814V230.433C334.12 228.323 332.154 226.907 329.942 226.907H313.055C315.281 226.907 317.262 228.338 317.956 230.462H317.942Z" fill="#4C4546"/>
<path d="M247.78 244.827C247.419 244.827 247.072 244.61 246.942 244.249C246.927 244.206 244.122 238.223 226.166 236.547C222.711 236.229 218.966 236.128 215.352 236.041C206.836 235.824 199.477 235.651 197.048 232.645C196.311 231.734 196.065 230.636 196.296 229.379C197.236 224.422 203.41 223.483 208.383 222.732C211.173 222.312 213.819 221.908 214.874 220.969C215.25 220.636 215.814 220.665 216.147 221.041C216.479 221.417 216.45 221.98 216.074 222.312C214.614 223.613 211.838 224.032 208.643 224.523C204.017 225.217 198.769 226.012 198.075 229.711C197.93 230.448 198.06 231.026 198.451 231.503C200.344 233.844 207.993 234.032 215.381 234.22C219.038 234.307 222.812 234.408 226.325 234.726C245.612 236.532 248.503 243.281 248.619 243.57C248.807 244.032 248.575 244.567 248.113 244.74C247.997 244.784 247.896 244.798 247.78 244.798V244.827Z" fill="#D82148"/>
<path d="M234.711 212.789C234.711 220.029 229.173 226.763 221.597 225.896C214.397 225.073 209.352 221.821 208.484 212.789C207.79 205.578 214.369 199.206 221.597 199.682C230.344 200.26 234.711 204.047 234.711 212.789Z" fill="#AD1A3A"/>
<path d="M228.161 201.07C230.416 202.963 231.544 205.868 231.544 210.073C231.544 216.561 226.585 222.602 219.79 221.821C214.152 221.171 209.973 218.859 208.499 212.876C209.395 221.836 214.426 225.073 221.597 225.896C229.173 226.763 234.71 220.029 234.71 212.789C234.71 206.619 232.513 202.92 228.147 201.07H228.161Z" fill="#82142B"/>
<path d="M220.426 220.578C220.065 220.578 219.703 220.549 219.342 220.506C219.038 220.463 218.836 220.202 218.865 219.899C218.908 219.596 219.154 219.393 219.472 219.422C221.626 219.697 223.896 219.032 225.544 217.63C227.207 216.243 228.248 214.119 228.364 211.951C228.364 211.648 228.624 211.416 228.927 211.431C229.231 211.431 229.462 211.705 229.448 211.994C229.332 214.451 228.132 216.864 226.253 218.454C224.648 219.798 222.523 220.549 220.426 220.549V220.578Z" fill="#FFFDD0"/>
<path d="M221.106 218.006C220.816 218.006 220.585 217.789 220.571 217.5C220.556 217.197 220.788 216.937 221.077 216.922C222.118 216.864 223.115 216.286 223.708 215.434C223.882 215.188 224.214 215.116 224.46 215.289C224.706 215.463 224.778 215.795 224.604 216.041C223.838 217.168 222.508 217.919 221.135 218.006C221.135 218.006 221.12 218.006 221.106 218.006Z" fill="#FFFDD0"/>
<path d="M228.696 207.688C228.392 207.688 228.161 207.442 228.161 207.139C228.161 205.737 227.467 204.335 226.339 203.497C226.094 203.324 226.05 202.977 226.224 202.731C226.397 202.486 226.744 202.442 226.99 202.616C228.392 203.656 229.26 205.39 229.26 207.124C229.26 207.428 229.014 207.659 228.71 207.659L228.696 207.688Z" fill="#FFFDD0"/>
<path d="M211.665 215.882C211.506 215.882 211.347 215.809 211.245 215.679C209.25 213.223 209.12 209.422 210.942 206.835C211.115 206.59 211.462 206.532 211.694 206.705C211.939 206.879 211.997 207.211 211.824 207.457C210.262 209.653 210.378 212.89 212.084 214.986C212.272 215.217 212.243 215.564 212.012 215.752C211.911 215.838 211.795 215.867 211.665 215.867V215.882Z" fill="#FFFDD0"/>
<path d="M213.544 210.969C213.284 210.969 213.053 210.781 213.01 210.521C212.634 208.44 213.212 206.243 214.556 204.625C215.901 203.006 217.969 202.038 220.079 202.038C220.383 202.038 220.629 202.284 220.629 202.587C220.629 202.891 220.383 203.136 220.079 203.136C218.287 203.136 216.537 203.96 215.395 205.333C214.253 206.706 213.761 208.584 214.079 210.347C214.137 210.636 213.935 210.925 213.646 210.983C213.617 210.983 213.573 210.983 213.544 210.983V210.969Z" fill="#F7A3A1"/>
<path d="M223.607 205.636C223.506 205.636 223.404 205.607 223.318 205.549C222.175 204.827 220.657 204.755 219.443 205.376C219.183 205.506 218.85 205.405 218.706 205.145C218.561 204.885 218.677 204.552 218.937 204.408C220.484 203.613 222.421 203.7 223.881 204.624C224.142 204.783 224.214 205.116 224.055 205.376C223.954 205.535 223.78 205.622 223.592 205.622L223.607 205.636Z" fill="#F7A3A1"/>
</svg>
